<svg width="18" height="22" viewBox="0 0 18 22" fill="none" xmlns="http://www.w3.org/2000/svg">
<path d="M16 18.9664H2V7.41641H16M13 0.0664062V2.16641H5V0.0664062H3V2.16641H2C0.89 2.16641 0 3.10091 0 4.26641V18.9664C0 19.5234 0.210714 20.0575 0.585786 20.4513C0.960859 20.8452 1.46957 21.0664 2 21.0664H16C16.5304 21.0664 17.0391 20.8452 17.4142 20.4513C17.7893 20.0575 18 19.5234 18 18.9664V4.26641C18 3.70945 17.7893 3.17531 17.4142 2.78148C17.0391 2.38766 16.5304 2.16641 16 2.16641H15V0.0664062M14 11.6164H9V16.8664H14V11.6164Z" fill="#80808A"/>
</svg>
