<svg width="18" height="19" viewBox="0 0 18 19" fill="none" xmlns="http://www.w3.org/2000/svg">
<g clip-path="url(#clip0_41_360)">
<path d="M9 0.875C8.86992 0.875 8.73984 0.878516 8.60977 0.884492L8.63789 1.5166C8.75742 1.51098 8.87695 1.50781 9 1.50781C13.1766 1.50781 16.5586 4.88984 16.5586 9.06641C16.5586 13.243 13.1766 16.625 9 16.625C5.85 16.625 3.15176 14.702 2.01621 11.9633L2.98758 11.6715L1.28496 10.4656L0.615234 12.3816L1.40801 12.1461C2.62547 15.1414 5.56875 17.2578 9 17.2578C13.5211 17.2578 17.1914 13.5875 17.1914 9.06641C17.1914 4.54531 13.5211 0.875 9 0.875ZM7.91719 0.946719C7.44961 1.00824 6.99961 1.10844 6.56016 1.24484L6.75703 1.84566C7.15781 1.72121 7.57617 1.62945 8.00156 1.5732L7.91719 0.946719ZM5.91328 1.47828C5.47734 1.65582 5.0625 1.86922 4.66875 2.11531L5.00273 2.65004C5.36484 2.42363 5.74805 2.22711 6.14883 2.06398L5.91328 1.47828ZM4.09219 2.50977C3.72311 2.78639 3.37795 3.09357 3.06035 3.42805L3.51914 3.85977C3.81094 3.55145 4.13086 3.26879 4.46836 3.01391L4.29961 2.78293L4.09219 2.50977ZM6.53555 2.81141L6.38086 3.42453L14.0098 5.375L14.1645 4.76328L6.53555 2.81141ZM2.60402 3.95117C2.31609 4.30977 2.0577 4.69648 1.8327 5.10078L2.38289 5.41016C2.59066 5.03398 2.82902 4.67891 3.09516 4.34492L2.60402 3.95117ZM7.09102 4.26055C6.95391 5.17461 7.18945 6.20117 7.59023 7.04492C7.81523 7.51602 8.08945 7.93086 8.36016 8.2332C8.50781 8.39844 8.65547 8.525 8.78906 8.61641L8.59922 9.36172C8.4375 9.37578 8.24766 9.41797 8.03672 9.4918C7.65352 9.62539 7.21406 9.85742 6.79219 10.1633C6.03281 10.7117 5.33672 11.4957 5.02031 12.3641L10.909 13.8723C11.0461 12.9582 10.8105 11.9316 10.4098 11.0879C10.1848 10.6168 9.91055 10.202 9.63984 9.89961C9.49219 9.73438 9.34453 9.60781 9.21094 9.51641L9.40078 8.77109C9.55898 8.75352 9.75234 8.71484 9.96328 8.64102C10.3465 8.50742 10.7859 8.27539 11.2078 7.96953C11.9672 7.42109 12.6633 6.63711 12.9797 5.76875L7.09102 4.26055ZM1.52016 5.72305C1.33277 6.14492 1.17914 6.58086 1.06312 7.03437L1.67766 7.18203C1.78418 6.76719 1.92516 6.36641 2.09777 5.97969L1.52016 5.72305ZM0.921094 7.71289C0.847617 8.15234 0.808594 8.60586 0.808594 9.06641V9.09805L1.44141 9.09102V9.06641C1.44141 8.64102 1.47727 8.22266 1.54512 7.81484L0.921094 7.71289ZM3.99023 12.7578L3.83555 13.3695L11.4645 15.3207L11.6191 14.709L3.99023 12.7578Z" fill="#80808A"/>
</g>
<defs>
<clipPath id="clip0_41_360">
<rect width="18" height="18" fill="white" transform="translate(0 0.0664062)"/>
</clipPath>
</defs>
</svg>
