<svg width="33" height="32" viewBox="0 0 33 32" fill="none" xmlns="http://www.w3.org/2000/svg">
<path d="M19.2578 2.20703H20.3613V4.41392H19.2578V2.20703Z" fill="#097FD9"/>
<path d="M17.0527 2.20703H18.1562V4.41392H17.0527V2.20703Z" fill="#097FD9"/>
<path d="M16.5009 6.62102H27.5354C27.8398 6.62102 28.0871 6.37324 28.0871 6.0693C28.0871 5.76536 27.8398 5.51758 27.5354 5.51758H16.5009C16.1965 5.51758 15.9492 5.76536 15.9492 6.0693C15.9492 6.37324 16.1965 6.62102 16.5009 6.62102Z" fill="#097FD9"/>
<path d="M21.4648 2.20703H22.5683V4.41392H21.4648V2.20703Z" fill="#097FD9"/>
<path d="M23.6719 2.20703H24.7753V4.41392H23.6719V2.20703Z" fill="#097FD9"/>
<path d="M25.8789 2.20703H26.9823V4.41392H25.8789V2.20703Z" fill="#097FD9"/>
<path d="M25.8784 0.551721C25.8784 0.247783 25.6311 0 25.3267 0H18.706C18.4016 0 18.1543 0.247783 18.1543 0.551721V1.10344H25.8784V0.551721Z" fill="#097FD9"/>
<path d="M32.4365 13.7935H14.294V12.6901H32.0827C31.5039 11.4874 30.3702 10.5957 28.9732 10.363L25.8798 9.847V7.72461H18.1557V9.847L15.0622 10.3628C13.6658 10.5955 12.5314 11.4876 11.9526 12.6898L13.1903 12.6901V13.7935H11.5992C11.5578 14.0319 11.5352 14.2768 11.5352 14.5263C11.5352 14.742 11.5522 14.9615 11.5859 15.179L13.4386 27.035H28.0866V28.1385H13.6114L13.6572 28.4308C13.9798 30.4993 15.7338 32.0005 17.8276 32.0005H26.2087C28.3026 32.0005 30.0565 30.4992 30.3792 28.4308L30.4245 28.1385H29.1903V27.035H30.5972L32.4499 15.1777C32.4836 14.9615 32.5006 14.742 32.5006 14.5263C32.5006 14.2768 32.4779 14.0319 32.4366 13.7935H32.4365ZM25.6695 24.0663C24.4277 25.3077 22.7967 25.9283 21.1658 25.9283C19.5351 25.9283 17.9041 25.3076 16.6622 24.0663L16.272 23.6761L25.2793 14.6689L25.6694 15.059C28.1527 17.5423 28.1527 21.5826 25.6694 24.0663H25.6695Z" fill="#097FD9"/>
<path d="M24.6077 16.9008C25.0727 17.614 25.3281 18.4522 25.3281 19.3101C25.3281 21.7439 23.3481 23.7239 20.9143 23.7239C20.0565 23.7239 19.2183 23.4685 18.505 23.0034L17.8535 23.6549C19.9198 25.33 22.9685 25.2063 24.8903 23.2852C26.812 21.364 26.9349 18.3148 25.26 16.249L24.6077 16.9008Z" fill="#097FD9"/>
<path d="M24.2236 19.3107C24.2236 18.7457 24.0751 18.193 23.8031 17.7041L19.3066 22.2006C19.796 22.4725 20.3483 22.621 20.9133 22.621C22.7389 22.621 24.2236 21.1363 24.2236 19.3107Z" fill="#097FD9"/>
<path d="M3.81035 17.6551H6.51328C6.25663 16.3978 5.14287 15.4482 3.81035 15.4482H1.10742C1.36358 16.7056 2.47783 17.6551 3.81035 17.6551Z" fill="#097FD9"/>
<path d="M11.2546 20.2124C10.2285 19.3902 8.97551 18.8921 7.66891 18.7823C7.64477 15.4727 7.40044 12.1377 4.91377 12.1377V13.2411C6.37189 13.2411 6.54529 16.0909 6.56622 18.7864C3.17411 19.0694 0.5 21.916 0.5 25.3787C0.5 29.0294 3.46996 31.9993 7.12065 31.9993C9.37212 31.9993 11.417 30.8799 12.6477 29.0062C12.6162 28.8727 12.5871 28.738 12.5654 28.6001L11.2546 20.2124ZM7.12065 30.8968C4.07856 30.8968 1.60344 28.4217 1.60344 25.3796H2.70688C2.70688 27.8134 4.6869 29.7934 7.12065 29.7934V30.8968ZM7.12065 22.0693C5.88322 22.0693 4.91377 21.3422 4.91377 20.4141H6.01721C6.01721 20.6393 6.44701 20.9659 7.12065 20.9659C7.7943 20.9659 8.2241 20.6393 8.2241 20.4141H9.32754C9.32754 21.3422 8.35809 22.0693 7.12065 22.0693Z" fill="#097FD9"/>
</svg>
