<svg width="35" height="32" viewBox="0 0 35 32" fill="none" xmlns="http://www.w3.org/2000/svg">
<path d="M32.9043 0.518095C31.4813 -0.406731 29.5604 -0.015394 28.529 1.33646L28.1731 1.79898C28.1019 1.90568 27.924 1.90568 27.853 1.79898L27.3905 1.22976C26.2166 -0.264295 23.9754 -0.442158 22.5881 0.945145C21.4496 2.04783 21.3787 3.79102 22.1968 5.10715H24.1888L25.1136 3.54189C25.2203 3.36397 25.4337 3.25727 25.6471 3.25727C25.8605 3.25727 26.0384 3.36397 26.1806 3.54189L27.888 6.42321L28.4927 5.42717C28.5994 5.24926 28.8128 5.14256 29.0262 5.14256H30.7336C31.0537 5.14256 31.3383 5.42717 31.3383 5.74726C31.3383 6.06736 31.0537 6.35197 30.7336 6.35197H29.3818L28.457 7.91723C28.3503 8.09514 28.1369 8.20184 27.9235 8.20184C27.7101 8.20184 27.5322 8.09514 27.39 7.91723L25.6826 5.03591L25.0779 6.03194C24.9712 6.20986 24.7578 6.31655 24.5444 6.31655H23.1216L27.0702 11.2256C27.5682 11.8304 28.4929 11.8304 28.991 11.2256L33.7221 5.28501C34.8608 3.79096 34.5405 1.58533 32.9043 0.518082L32.9043 0.518095Z" fill="white"/>
<path d="M8.78619 19.1582L6.18945 26.8063L9.67551 26.5929L11.81 20.3322L10.5294 20.0831C9.81774 19.9409 9.24851 19.6208 8.78626 19.1582L8.78619 19.1582Z" fill="white"/>
<path d="M19.1277 4.0889C19.4937 5.59731 18.5674 7.11639 17.0593 7.48241C15.5508 7.84816 14.0315 6.92187 13.6657 5.41373C13.3 3.90532 14.226 2.38624 15.7344 2.02022C17.2426 1.65447 18.7619 2.58076 19.1277 4.0889Z" fill="white"/>
<path d="M6.15335 14.4987C6.82929 14.8188 7.61189 14.5699 7.93198 13.894L9.28381 11.2261L11.2046 10.5859L9.6039 16.3486C9.4972 16.7754 9.53268 17.2379 9.78181 17.6292C10.0309 18.0205 10.3865 18.2694 10.8133 18.3764L15.7224 19.3721L14.0859 23.2853C13.7301 24.1034 14.1214 25.0284 14.9397 25.384C15.2598 25.5262 15.6157 25.5262 15.9358 25.4552C16.4338 25.3485 16.8251 24.9927 17.0384 24.4947L19.4218 18.7675C19.5997 18.3407 19.564 17.8069 19.3506 17.4156C19.1372 16.9889 18.7104 16.7043 18.2479 16.5975L14.8328 15.8861L16.1846 12.2577L17.8211 14.3922C18.1412 14.819 18.6749 14.9969 19.2084 14.8902C19.3151 14.8547 19.4218 14.819 19.5643 14.748L22.3744 13.1827C23.0146 12.8269 23.2637 12.0088 22.8724 11.3686C22.5166 10.7284 21.6985 10.4793 21.0582 10.8706L19.2796 11.8666L17.8211 9.98126C17.3943 9.41204 16.7896 8.98522 16.1491 8.77185L13.5524 7.84702C12.8053 7.56241 11.9517 7.56241 11.169 7.81154L7.93186 8.87878C7.57603 8.98548 7.32716 9.23461 7.14926 9.55473L5.54855 12.7207C5.22846 13.3604 5.47734 14.1787 6.15326 14.4988L6.15335 14.4987Z" fill="white"/>
<path d="M31.4106 14.2851C31.3039 13.7871 30.8059 13.5025 30.3079 13.6092L23.3712 15.4945C22.9087 15.6367 22.6241 16.0992 22.7311 16.5618L22.9802 17.7357C23.0869 18.1982 23.5494 18.5183 24.0117 18.4116L25.9682 18.0558L26.7863 27.2336L2.0989 28.7988C1.24509 28.8343 0.569403 29.5814 0.604849 30.4353C0.640332 31.2889 1.352 32.0003 2.20556 32.0003H28.6716C29.1341 32.0003 29.5609 31.8224 29.8455 31.4668C30.1656 31.1467 30.308 30.6842 30.2723 30.2574L29.1339 17.5579L31.0904 17.2021C31.5884 17.1309 31.9085 16.6329 31.8018 16.1349L31.4106 14.2851Z" fill="white"/>
</svg>
