<svg width="24" height="24" viewBox="0 0 24 24" fill="none" xmlns="http://www.w3.org/2000/svg">
<path d="M22.716 16.4622L16.9955 13.8987C16.7363 13.7876 16.4535 13.7429 16.1727 13.7687C15.8919 13.7945 15.622 13.89 15.3874 14.0464C15.3636 14.0617 15.3409 14.0787 15.3196 14.0972L12.3298 16.6402C12.2988 16.6571 12.2642 16.6666 12.2289 16.6679C12.1936 16.6691 12.1585 16.6621 12.1263 16.6475C10.2046 15.7199 8.2138 13.7412 7.28259 11.8461C7.26709 11.8144 7.25902 11.7797 7.25902 11.7444C7.25902 11.7091 7.26709 11.6743 7.28259 11.6427L9.83404 8.61533C9.85234 8.59293 9.86933 8.56948 9.8849 8.5451C10.0392 8.30958 10.1323 8.03935 10.156 7.7588C10.1797 7.47826 10.1331 7.19623 10.0205 6.93819L7.47513 1.2274C7.33058 0.890291 7.08059 0.609151 6.76269 0.426182C6.44478 0.243212 6.07611 0.168283 5.71201 0.212639C4.12958 0.420674 2.67705 1.19778 1.62585 2.39875C0.574642 3.59971 -0.00330305 5.14235 1.42011e-05 6.73838C1.42011e-05 16.22 7.71369 23.9337 17.1953 23.9337C18.7913 23.9368 20.3338 23.3587 21.5347 22.3076C22.7356 21.2564 23.5128 19.804 23.7211 18.2217C23.7653 17.8593 23.6914 17.4923 23.5103 17.1753C23.3292 16.8582 23.0506 16.6082 22.716 16.4622ZM17.1953 22.4806C8.51533 22.4806 1.45314 15.4184 1.45314 6.73838C1.44909 5.49587 1.89756 4.29439 2.71475 3.35842C3.53194 2.42245 4.66195 1.81603 5.89365 1.65244H5.9215C5.9703 1.65335 6.01768 1.66899 6.05744 1.6973C6.0972 1.7256 6.12748 1.76526 6.14431 1.81108L8.69939 7.5158C8.71396 7.54752 8.72151 7.58201 8.72151 7.61692C8.72151 7.65182 8.71396 7.68631 8.69939 7.71803L6.1431 10.7526C6.12403 10.7743 6.10662 10.7974 6.09103 10.8217C5.93107 11.0659 5.83688 11.3472 5.81757 11.6385C5.79827 11.9298 5.8545 12.2211 5.98083 12.4843C7.05494 14.6833 9.27095 16.8824 11.4942 17.9565C11.7589 18.0821 12.0517 18.137 12.3439 18.1158C12.6362 18.0946 12.9179 17.998 13.1617 17.8354C13.1847 17.8197 13.2077 17.8027 13.2295 17.7846L16.2181 15.2416C16.2476 15.2257 16.2802 15.2164 16.3137 15.2143C16.3471 15.2123 16.3806 15.2174 16.4118 15.2295L22.1335 17.793C22.1803 17.8129 22.2196 17.847 22.2459 17.8905C22.2722 17.934 22.2841 17.9846 22.2801 18.0352C22.1173 19.2675 21.5115 20.3983 20.5757 21.2164C19.6399 22.0345 18.4383 22.4839 17.1953 22.4806Z" fill="#7F8085"/>
</svg>
