<svg width="24" height="25" viewBox="0 0 24 25" fill="none" xmlns="http://www.w3.org/2000/svg">
<path d="M18.002 22C17.3087 22 16.7183 21.7567 16.231 21.27C15.7437 20.7847 15.5 20.1947 15.5 19.5C15.5 19.3667 15.5113 19.229 15.534 19.087C15.5573 18.9443 15.592 18.81 15.638 18.684L7.896 14.123C7.65133 14.399 7.36667 14.614 7.042 14.768C6.71733 14.922 6.37 14.9993 6 15C5.30533 15 4.71533 14.7573 4.23 14.272C3.74333 13.786 3.5 13.196 3.5 12.502C3.5 11.808 3.74333 11.2177 4.23 10.731C4.71667 10.2443 5.30667 10.0007 6 10C6.37067 10 6.718 10.0773 7.042 10.232C7.366 10.3867 7.65067 10.6017 7.896 10.877L15.639 6.315C15.5923 6.18967 15.5577 6.05567 15.535 5.913C15.5117 5.771 15.5 5.63333 15.5 5.5C15.5 4.80533 15.743 4.21533 16.229 3.73C16.7143 3.24333 17.304 3 17.998 3C18.692 3 19.2823 3.243 19.769 3.729C20.2557 4.215 20.4993 4.80467 20.5 5.498C20.5007 6.19133 20.2573 6.78167 19.77 7.269C19.2853 7.75633 18.6953 8 18 8C17.6293 8 17.282 7.92267 16.958 7.768C16.634 7.61333 16.3493 7.39833 16.104 7.123L8.362 11.685C8.408 11.8103 8.44233 11.9437 8.465 12.085C8.48833 12.227 8.5 12.364 8.5 12.496C8.5 12.628 8.48833 12.7663 8.465 12.911C8.44167 13.0557 8.407 13.1907 8.361 13.316L16.104 17.877C16.3487 17.6017 16.6333 17.3867 16.958 17.232C17.2827 17.0773 17.63 17 18 17C18.6947 17 19.2847 17.243 19.77 17.729C20.2567 18.2143 20.5 18.804 20.5 19.498C20.5 20.192 20.2573 20.7823 19.772 21.269C19.2867 21.7557 18.6967 21.9993 18.002 22Z" fill="white"/>
</svg>
