<svg width="23" height="22" viewBox="0 0 23 22" fill="none" xmlns="http://www.w3.org/2000/svg">
<path d="M22.1666 10.1867C22.4143 10.0021 22.5981 9.7446 22.6922 9.45029C22.7862 9.15598 22.7858 8.83962 22.691 8.54556C22.5961 8.2515 22.4116 7.9945 22.1634 7.81058C21.9151 7.62667 21.6155 7.52506 21.3066 7.52002L15.3066 7.29335C15.2771 7.29131 15.2488 7.28079 15.2251 7.26305C15.2015 7.24531 15.1834 7.2211 15.1732 7.19335L13.0999 1.59335C12.9957 1.30844 12.8065 1.06243 12.5579 0.888614C12.3093 0.7148 12.0132 0.621582 11.7099 0.621582C11.4065 0.621582 11.1105 0.7148 10.8619 0.888614C10.6133 1.06243 10.4241 1.30844 10.3199 1.59335L8.25323 7.21335C8.24301 7.2411 8.22499 7.26531 8.20133 7.28305C8.17768 7.30079 8.14939 7.31131 8.11989 7.31335L2.11989 7.54002C1.81096 7.54506 1.51136 7.64667 1.26309 7.83058C1.01482 8.0145 0.830334 8.2715 0.735501 8.56556C0.640667 8.85962 0.640242 9.17598 0.734284 9.47029C0.828326 9.7646 1.01212 10.0221 1.25989 10.2067L5.96656 13.9067C5.99012 13.9252 6.00772 13.9503 6.0172 13.9787C6.02668 14.0071 6.02762 14.0377 6.01989 14.0667L4.39989 19.8067C4.31595 20.099 4.32408 20.41 4.42319 20.6975C4.52229 20.9851 4.70756 21.2351 4.95379 21.4135C5.20002 21.592 5.49525 21.6903 5.79933 21.6951C6.1034 21.6998 6.40156 21.6107 6.65323 21.44L11.6266 18.1067C11.6511 18.0898 11.6801 18.0807 11.7099 18.0807C11.7397 18.0807 11.7687 18.0898 11.7932 18.1067L16.7666 21.44C17.0148 21.6166 17.3119 21.7114 17.6166 21.7114C17.9212 21.7114 18.2183 21.6166 18.4666 21.44C18.7128 21.2632 18.8983 21.0144 18.9974 20.7279C19.0965 20.4414 19.1043 20.1312 19.0199 19.84L17.3866 14.08C17.3779 14.0511 17.3784 14.0202 17.3879 13.9916C17.3975 13.963 17.4156 13.938 17.4399 13.92L22.1666 10.1867Z" fill="#FFA800" fill-opacity="0.8"/>
</svg>
